<svg xmlns="http://www.w3.org/2000/svg" xmlns:xlink="http://www.w3.org/1999/xlink" version="1.1" id="Capa_1" x="0px" y="0px" viewBox="0 0 106.053 106.053" style="width: 200px; height: 200px; transform-origin: 50% 50%; transform: scaleX(1) scaleY(1) rotate(0deg);" xml:space="preserve" preserveAspectRatio="xMidYMid meet">
<g style="fill:#000000">
	<path style="fill:#DB4545" d="M84.84,0H21.212C9.545,0,0.002,9.543,0.002,21.21v63.634c0,11.666,9.543,21.209,21.209,21.209H84.84   c11.667,0,21.21-9.543,21.21-21.209V21.21C106.05,9.543,96.507,0,84.84,0z M36.943,49.853l10.352,10.017l10.31-19.62l9.88,11.433   l7.202-17.121l-6.561-2.763l15.98-12.111l2.5,19.889l-6.617-2.788L69.192,62.438l-10.418-12.06L48.806,69.33l-9.932-9.616   L30.39,78.977l-5.261-2.304L36.943,49.853z M92.794,92.792H13.258V13.256h2.916v76.621h76.621V92.792z" class=""/>
</g>
<g style="fill:#000000">
</g>
<g style="fill:#000000">
</g>
<g style="fill:#000000">
</g>
<g style="fill:#000000">
</g>
<g style="fill:#000000">
</g>
<g style="fill:#000000">
</g>
<g style="fill:#000000">
</g>
<g style="fill:#000000">
</g>
<g style="fill:#000000">
</g>
<g style="fill:#000000">
</g>
<g style="fill:#000000">
</g>
<g style="fill:#000000">
</g>
<g style="fill:#000000">
</g>
<g style="fill:#000000">
</g>
<g style="fill:#000000">
</g>
</svg>